<svg width="1536" height="60" viewBox="0 0 1536 60" fill="none" xmlns="http://www.w3.org/2000/svg">
<g filter="url(#filter0_b_460_8201)">
<path d="M-1 0H1476C1509.14 0 1536 26.8629 1536 60V60H-1V0Z" fill="white" fill-opacity="0.8"/>
<path d="M405.245 36V25.5H409.79C410.73 25.5 411.54 25.655 412.22 25.965C412.9 26.265 413.425 26.7 413.795 27.27C414.165 27.84 414.35 28.52 414.35 29.31C414.35 30.09 414.165 30.765 413.795 31.335C413.425 31.905 412.9 32.345 412.22 32.655C411.54 32.955 410.73 33.105 409.79 33.105H406.595L407.675 32.01V36H405.245ZM407.675 32.28L406.595 31.125H409.655C410.405 31.125 410.965 30.965 411.335 30.645C411.705 30.325 411.89 29.88 411.89 29.31C411.89 28.73 411.705 28.28 411.335 27.96C410.965 27.64 410.405 27.48 409.655 27.48H406.595L407.675 26.325V32.28ZM419.52 36.12C418.66 36.12 417.895 35.94 417.225 35.58C416.565 35.22 416.04 34.73 415.65 34.11C415.27 33.48 415.08 32.765 415.08 31.965C415.08 31.155 415.27 30.44 415.65 29.82C416.04 29.19 416.565 28.7 417.225 28.35C417.895 27.99 418.66 27.81 419.52 27.81C420.37 27.81 421.13 27.99 421.8 28.35C422.47 28.7 422.995 29.185 423.375 29.805C423.755 30.425 423.945 31.145 423.945 31.965C423.945 32.765 423.755 33.48 423.375 34.11C422.995 34.73 422.47 35.22 421.8 35.58C421.13 35.94 420.37 36.12 419.52 36.12ZM419.52 34.2C419.91 34.2 420.26 34.11 420.57 33.93C420.88 33.75 421.125 33.495 421.305 33.165C421.485 32.825 421.575 32.425 421.575 31.965C421.575 31.495 421.485 31.095 421.305 30.765C421.125 30.435 420.88 30.18 420.57 30C420.26 29.82 419.91 29.73 419.52 29.73C419.13 29.73 418.78 29.82 418.47 30C418.16 30.18 417.91 30.435 417.72 30.765C417.54 31.095 417.45 31.495 417.45 31.965C417.45 32.425 417.54 32.825 417.72 33.165C417.91 33.495 418.16 33.75 418.47 33.93C418.78 34.11 419.13 34.2 419.52 34.2ZM425.284 36V27.93H427.519V30.21L427.204 29.55C427.444 28.98 427.829 28.55 428.359 28.26C428.889 27.96 429.534 27.81 430.294 27.81V29.97C430.194 29.96 430.104 29.955 430.024 29.955C429.944 29.945 429.859 29.94 429.769 29.94C429.129 29.94 428.609 30.125 428.209 30.495C427.819 30.855 427.624 31.42 427.624 32.19V36H425.284ZM435.039 36.12C434.089 36.12 433.349 35.88 432.819 35.4C432.289 34.91 432.024 34.185 432.024 33.225V26.145H434.364V33.195C434.364 33.535 434.454 33.8 434.634 33.99C434.814 34.17 435.059 34.26 435.369 34.26C435.739 34.26 436.054 34.16 436.314 33.96L436.944 35.61C436.704 35.78 436.414 35.91 436.074 36C435.744 36.08 435.399 36.12 435.039 36.12ZM430.779 29.91V28.11H436.374V29.91H430.779ZM442.983 36V34.425L442.833 34.08V31.26C442.833 30.76 442.678 30.37 442.368 30.09C442.068 29.81 441.603 29.67 440.973 29.67C440.543 29.67 440.118 29.74 439.698 29.88C439.288 30.01 438.938 30.19 438.648 30.42L437.808 28.785C438.248 28.475 438.778 28.235 439.398 28.065C440.018 27.895 440.648 27.81 441.288 27.81C442.518 27.81 443.473 28.1 444.153 28.68C444.833 29.26 445.173 30.165 445.173 31.395V36H442.983ZM440.523 36.12C439.893 36.12 439.353 36.015 438.903 35.805C438.453 35.585 438.108 35.29 437.868 34.92C437.628 34.55 437.508 34.135 437.508 33.675C437.508 33.195 437.623 32.775 437.853 32.415C438.093 32.055 438.468 31.775 438.978 31.575C439.488 31.365 440.153 31.26 440.973 31.26H443.118V32.625H441.228C440.678 32.625 440.298 32.715 440.088 32.895C439.888 33.075 439.788 33.3 439.788 33.57C439.788 33.87 439.903 34.11 440.133 34.29C440.373 34.46 440.698 34.545 441.108 34.545C441.498 34.545 441.848 34.455 442.158 34.275C442.468 34.085 442.693 33.81 442.833 33.45L443.193 34.53C443.023 35.05 442.713 35.445 442.263 35.715C441.813 35.985 441.233 36.12 440.523 36.12ZM447.065 36V24.87H449.405V36H447.065ZM455.54 36V25.5H457.97V36H455.54ZM464.977 27.81C465.617 27.81 466.187 27.94 466.687 28.2C467.197 28.45 467.597 28.84 467.887 29.37C468.177 29.89 468.322 30.56 468.322 31.38V36H465.982V31.74C465.982 31.09 465.837 30.61 465.547 30.3C465.267 29.99 464.867 29.835 464.347 29.835C463.977 29.835 463.642 29.915 463.342 30.075C463.052 30.225 462.822 30.46 462.652 30.78C462.492 31.1 462.412 31.51 462.412 32.01V36H460.072V27.93H462.307V30.165L461.887 29.49C462.177 28.95 462.592 28.535 463.132 28.245C463.672 27.955 464.287 27.81 464.977 27.81ZM474.117 36.12C473.257 36.12 472.492 35.94 471.822 35.58C471.162 35.22 470.637 34.73 470.247 34.11C469.867 33.48 469.677 32.765 469.677 31.965C469.677 31.155 469.867 30.44 470.247 29.82C470.637 29.19 471.162 28.7 471.822 28.35C472.492 27.99 473.257 27.81 474.117 27.81C474.967 27.81 475.727 27.99 476.397 28.35C477.067 28.7 477.592 29.185 477.972 29.805C478.352 30.425 478.542 31.145 478.542 31.965C478.542 32.765 478.352 33.48 477.972 34.11C477.592 34.73 477.067 35.22 476.397 35.58C475.727 35.94 474.967 36.12 474.117 36.12ZM474.117 34.2C474.507 34.2 474.857 34.11 475.167 33.93C475.477 33.75 475.722 33.495 475.902 33.165C476.082 32.825 476.172 32.425 476.172 31.965C476.172 31.495 476.082 31.095 475.902 30.765C475.722 30.435 475.477 30.18 475.167 30C474.857 29.82 474.507 29.73 474.117 29.73C473.727 29.73 473.377 29.82 473.067 30C472.757 30.18 472.507 30.435 472.317 30.765C472.137 31.095 472.047 31.495 472.047 31.965C472.047 32.425 472.137 32.825 472.317 33.165C472.507 33.495 472.757 33.75 473.067 33.93C473.377 34.11 473.727 34.2 474.117 34.2ZM481.851 36L478.461 27.93H480.876L483.696 34.875H482.496L485.421 27.93H487.671L484.266 36H481.851ZM493.087 36V34.425L492.937 34.08V31.26C492.937 30.76 492.782 30.37 492.472 30.09C492.172 29.81 491.707 29.67 491.077 29.67C490.647 29.67 490.222 29.74 489.802 29.88C489.392 30.01 489.042 30.19 488.752 30.42L487.912 28.785C488.352 28.475 488.882 28.235 489.502 28.065C490.122 27.895 490.752 27.81 491.392 27.81C492.622 27.81 493.577 28.1 494.257 28.68C494.937 29.26 495.277 30.165 495.277 31.395V36H493.087ZM490.627 36.12C489.997 36.12 489.457 36.015 489.007 35.805C488.557 35.585 488.212 35.29 487.972 34.92C487.732 34.55 487.612 34.135 487.612 33.675C487.612 33.195 487.727 32.775 487.957 32.415C488.197 32.055 488.572 31.775 489.082 31.575C489.592 31.365 490.257 31.26 491.077 31.26H493.222V32.625H491.332C490.782 32.625 490.402 32.715 490.192 32.895C489.992 33.075 489.892 33.3 489.892 33.57C489.892 33.87 490.007 34.11 490.237 34.29C490.477 34.46 490.802 34.545 491.212 34.545C491.602 34.545 491.952 34.455 492.262 34.275C492.572 34.085 492.797 33.81 492.937 33.45L493.297 34.53C493.127 35.05 492.817 35.445 492.367 35.715C491.917 35.985 491.337 36.12 490.627 36.12ZM499.885 36.12C499.195 36.12 498.53 36.04 497.89 35.88C497.26 35.71 496.76 35.5 496.39 35.25L497.17 33.57C497.54 33.8 497.975 33.99 498.475 34.14C498.985 34.28 499.485 34.35 499.975 34.35C500.515 34.35 500.895 34.285 501.115 34.155C501.345 34.025 501.46 33.845 501.46 33.615C501.46 33.425 501.37 33.285 501.19 33.195C501.02 33.095 500.79 33.02 500.5 32.97C500.21 32.92 499.89 32.87 499.54 32.82C499.2 32.77 498.855 32.705 498.505 32.625C498.155 32.535 497.835 32.405 497.545 32.235C497.255 32.065 497.02 31.835 496.84 31.545C496.67 31.255 496.585 30.88 496.585 30.42C496.585 29.91 496.73 29.46 497.02 29.07C497.32 28.68 497.75 28.375 498.31 28.155C498.87 27.925 499.54 27.81 500.32 27.81C500.87 27.81 501.43 27.87 502 27.99C502.57 28.11 503.045 28.285 503.425 28.515L502.645 30.18C502.255 29.95 501.86 29.795 501.46 29.715C501.07 29.625 500.69 29.58 500.32 29.58C499.8 29.58 499.42 29.65 499.18 29.79C498.94 29.93 498.82 30.11 498.82 30.33C498.82 30.53 498.905 30.68 499.075 30.78C499.255 30.88 499.49 30.96 499.78 31.02C500.07 31.08 500.385 31.135 500.725 31.185C501.075 31.225 501.425 31.29 501.775 31.38C502.125 31.47 502.44 31.6 502.72 31.77C503.01 31.93 503.245 32.155 503.425 32.445C503.605 32.725 503.695 33.095 503.695 33.555C503.695 34.055 503.545 34.5 503.245 34.89C502.945 35.27 502.51 35.57 501.94 35.79C501.38 36.01 500.695 36.12 499.885 36.12ZM504.914 36V27.93H507.254V36H504.914ZM506.084 26.805C505.654 26.805 505.304 26.68 505.034 26.43C504.764 26.18 504.629 25.87 504.629 25.5C504.629 25.13 504.764 24.82 505.034 24.57C505.304 24.32 505.654 24.195 506.084 24.195C506.514 24.195 506.864 24.315 507.134 24.555C507.404 24.785 507.539 25.085 507.539 25.455C507.539 25.845 507.404 26.17 507.134 26.43C506.874 26.68 506.524 26.805 506.084 26.805Z" fill="#BB2236"/>
<path d="M1139.35 36.045C1138.6 36.045 1137.91 35.91 1137.27 35.64C1136.63 35.37 1136.07 34.995 1135.59 34.515C1135.11 34.025 1134.73 33.46 1134.46 32.82C1134.2 32.18 1134.07 31.49 1134.07 30.75C1134.07 30.01 1134.21 29.32 1134.48 28.68C1134.75 28.04 1135.12 27.48 1135.6 27C1136.08 26.51 1136.64 26.13 1137.28 25.86C1137.93 25.59 1138.63 25.455 1139.38 25.455C1140.13 25.455 1140.83 25.59 1141.47 25.86C1142.12 26.12 1142.68 26.49 1143.15 26.97C1143.63 27.45 1144 28.01 1144.26 28.65C1144.53 29.28 1144.66 29.97 1144.66 30.72C1144.66 31.47 1144.53 32.17 1144.26 32.82C1143.99 33.46 1143.61 34.025 1143.12 34.515C1142.64 34.995 1142.08 35.37 1141.44 35.64C1140.8 35.91 1140.1 36.045 1139.35 36.045ZM1139.34 35.49C1140.02 35.49 1140.64 35.37 1141.21 35.13C1141.78 34.88 1142.28 34.54 1142.71 34.11C1143.15 33.68 1143.49 33.175 1143.73 32.595C1143.97 32.005 1144.09 31.38 1144.09 30.72C1144.09 30.05 1143.97 29.43 1143.73 28.86C1143.5 28.29 1143.17 27.79 1142.74 27.36C1142.32 26.93 1141.82 26.6 1141.24 26.37C1140.67 26.13 1140.05 26.01 1139.38 26.01C1138.7 26.01 1138.07 26.13 1137.49 26.37C1136.91 26.61 1136.41 26.95 1135.98 27.39C1135.56 27.82 1135.23 28.32 1134.99 28.89C1134.75 29.46 1134.63 30.08 1134.63 30.75C1134.63 31.41 1134.75 32.03 1134.99 32.61C1135.23 33.18 1135.56 33.685 1135.98 34.125C1136.41 34.555 1136.91 34.89 1137.48 35.13C1138.06 35.37 1138.68 35.49 1139.34 35.49ZM1139.49 33.87C1138.89 33.87 1138.35 33.74 1137.88 33.48C1137.41 33.21 1137.04 32.84 1136.77 32.37C1136.5 31.9 1136.37 31.36 1136.37 30.75C1136.37 30.14 1136.5 29.6 1136.77 29.13C1137.04 28.66 1137.41 28.295 1137.88 28.035C1138.35 27.765 1138.89 27.63 1139.49 27.63C1140 27.63 1140.46 27.735 1140.87 27.945C1141.29 28.145 1141.62 28.425 1141.87 28.785L1141.23 29.265C1141.02 28.975 1140.76 28.76 1140.46 28.62C1140.16 28.48 1139.83 28.41 1139.47 28.41C1139.04 28.41 1138.66 28.51 1138.32 28.71C1137.99 28.9 1137.72 29.17 1137.52 29.52C1137.32 29.87 1137.22 30.28 1137.22 30.75C1137.22 31.22 1137.32 31.63 1137.52 31.98C1137.72 32.33 1137.99 32.605 1138.32 32.805C1138.66 32.995 1139.04 33.09 1139.47 33.09C1139.83 33.09 1140.16 33.02 1140.46 32.88C1140.76 32.74 1141.02 32.525 1141.23 32.235L1141.87 32.7C1141.62 33.07 1141.29 33.36 1140.87 33.57C1140.46 33.77 1140 33.87 1139.49 33.87ZM1149.48 36V35.235L1153.85 30.96C1154.25 30.57 1154.55 30.23 1154.75 29.94C1154.95 29.64 1155.08 29.36 1155.15 29.1C1155.22 28.84 1155.26 28.595 1155.26 28.365C1155.26 27.755 1155.05 27.275 1154.63 26.925C1154.22 26.575 1153.61 26.4 1152.8 26.4C1152.18 26.4 1151.63 26.495 1151.15 26.685C1150.68 26.875 1150.27 27.17 1149.93 27.57L1149.17 26.91C1149.58 26.43 1150.1 26.06 1150.74 25.8C1151.38 25.54 1152.1 25.41 1152.89 25.41C1153.6 25.41 1154.21 25.525 1154.73 25.755C1155.25 25.975 1155.65 26.3 1155.93 26.73C1156.22 27.16 1156.37 27.665 1156.37 28.245C1156.37 28.585 1156.32 28.92 1156.22 29.25C1156.13 29.58 1155.96 29.93 1155.71 30.3C1155.47 30.66 1155.11 31.07 1154.64 31.53L1150.64 35.46L1150.34 35.04H1156.85V36H1149.48ZM1162.13 36.09C1161.32 36.09 1160.6 35.88 1159.97 35.46C1159.34 35.03 1158.85 34.42 1158.49 33.63C1158.13 32.83 1157.95 31.87 1157.95 30.75C1157.95 29.63 1158.13 28.675 1158.49 27.885C1158.85 27.085 1159.34 26.475 1159.97 26.055C1160.6 25.625 1161.32 25.41 1162.13 25.41C1162.94 25.41 1163.66 25.625 1164.29 26.055C1164.92 26.475 1165.42 27.085 1165.78 27.885C1166.15 28.675 1166.33 29.63 1166.33 30.75C1166.33 31.87 1166.15 32.83 1165.78 33.63C1165.42 34.42 1164.92 35.03 1164.29 35.46C1163.66 35.88 1162.94 36.09 1162.13 36.09ZM1162.13 35.1C1162.75 35.1 1163.29 34.935 1163.75 34.605C1164.21 34.265 1164.57 33.775 1164.83 33.135C1165.09 32.485 1165.22 31.69 1165.22 30.75C1165.22 29.81 1165.09 29.02 1164.83 28.38C1164.57 27.73 1164.21 27.24 1163.75 26.91C1163.29 26.57 1162.75 26.4 1162.13 26.4C1161.53 26.4 1161 26.57 1160.53 26.91C1160.06 27.24 1159.69 27.73 1159.43 28.38C1159.17 29.02 1159.04 29.81 1159.04 30.75C1159.04 31.69 1159.17 32.485 1159.43 33.135C1159.69 33.775 1160.06 34.265 1160.53 34.605C1161 34.935 1161.53 35.1 1162.13 35.1ZM1167.46 36V35.235L1171.82 30.96C1172.22 30.57 1172.52 30.23 1172.72 29.94C1172.92 29.64 1173.06 29.36 1173.13 29.1C1173.2 28.84 1173.23 28.595 1173.23 28.365C1173.23 27.755 1173.02 27.275 1172.6 26.925C1172.19 26.575 1171.58 26.4 1170.77 26.4C1170.15 26.4 1169.6 26.495 1169.12 26.685C1168.65 26.875 1168.25 27.17 1167.91 27.57L1167.14 26.91C1167.55 26.43 1168.08 26.06 1168.72 25.8C1169.36 25.54 1170.07 25.41 1170.86 25.41C1171.57 25.41 1172.19 25.525 1172.71 25.755C1173.23 25.975 1173.63 26.3 1173.91 26.73C1174.2 27.16 1174.34 27.665 1174.34 28.245C1174.34 28.585 1174.29 28.92 1174.19 29.25C1174.1 29.58 1173.93 29.93 1173.68 30.3C1173.44 30.66 1173.09 31.07 1172.62 31.53L1168.61 35.46L1168.31 35.04H1174.82V36H1167.46ZM1179.09 36.09C1178.33 36.09 1177.61 35.97 1176.93 35.73C1176.26 35.48 1175.72 35.15 1175.31 34.74L1175.83 33.885C1176.17 34.235 1176.63 34.525 1177.2 34.755C1177.78 34.985 1178.41 35.1 1179.09 35.1C1179.96 35.1 1180.62 34.91 1181.08 34.53C1181.55 34.15 1181.79 33.64 1181.79 33C1181.79 32.36 1181.56 31.85 1181.1 31.47C1180.65 31.09 1179.93 30.9 1178.95 30.9H1178.2V30.105L1181.44 26.04L1181.59 26.46H1175.74V25.5H1182.49V26.265L1179.25 30.33L1178.73 29.985H1179.13C1180.39 29.985 1181.33 30.265 1181.95 30.825C1182.58 31.385 1182.9 32.105 1182.9 32.985C1182.9 33.575 1182.76 34.105 1182.48 34.575C1182.2 35.045 1181.77 35.415 1181.2 35.685C1180.64 35.955 1179.94 36.09 1179.09 36.09ZM1184.26 38.19L1184.92 35.415L1185.04 36.06C1184.81 36.06 1184.61 35.985 1184.45 35.835C1184.3 35.685 1184.23 35.49 1184.23 35.25C1184.23 35.01 1184.3 34.815 1184.45 34.665C1184.61 34.515 1184.8 34.44 1185.02 34.44C1185.25 34.44 1185.44 34.52 1185.58 34.68C1185.73 34.84 1185.8 35.03 1185.8 35.25C1185.8 35.33 1185.8 35.41 1185.79 35.49C1185.78 35.57 1185.76 35.66 1185.73 35.76C1185.7 35.86 1185.66 35.98 1185.61 36.12L1184.98 38.19H1184.26ZM1192.74 33.39L1192.69 32.04L1199.05 25.5H1200.33L1195.69 30.36L1195.06 31.035L1192.74 33.39ZM1191.78 36V25.5H1192.89V36H1191.78ZM1199.32 36L1194.79 30.78L1195.54 29.97L1200.64 36H1199.32ZM1205.87 28.05C1206.51 28.05 1207.07 28.175 1207.55 28.425C1208.04 28.665 1208.42 29.035 1208.69 29.535C1208.97 30.035 1209.11 30.665 1209.11 31.425V36H1208.04V31.53C1208.04 30.7 1207.83 30.075 1207.41 29.655C1207 29.225 1206.42 29.01 1205.67 29.01C1205.11 29.01 1204.62 29.125 1204.2 29.355C1203.79 29.575 1203.47 29.9 1203.24 30.33C1203.02 30.75 1202.91 31.26 1202.91 31.86V36H1201.85V28.125H1202.87V30.285L1202.7 29.88C1202.95 29.31 1203.35 28.865 1203.9 28.545C1204.45 28.215 1205.11 28.05 1205.87 28.05ZM1214.97 36.075C1214.21 36.075 1213.52 35.905 1212.91 35.565C1212.31 35.215 1211.84 34.74 1211.49 34.14C1211.14 33.53 1210.96 32.835 1210.96 32.055C1210.96 31.265 1211.14 30.57 1211.49 29.97C1211.84 29.37 1212.31 28.9 1212.91 28.56C1213.51 28.22 1214.2 28.05 1214.97 28.05C1215.75 28.05 1216.44 28.22 1217.04 28.56C1217.65 28.9 1218.12 29.37 1218.46 29.97C1218.81 30.57 1218.99 31.265 1218.99 32.055C1218.99 32.835 1218.81 33.53 1218.46 34.14C1218.12 34.74 1217.65 35.215 1217.04 35.565C1216.43 35.905 1215.74 36.075 1214.97 36.075ZM1214.97 35.13C1215.54 35.13 1216.04 35.005 1216.48 34.755C1216.92 34.495 1217.27 34.135 1217.52 33.675C1217.78 33.205 1217.91 32.665 1217.91 32.055C1217.91 31.435 1217.78 30.895 1217.52 30.435C1217.27 29.975 1216.92 29.62 1216.48 29.37C1216.04 29.11 1215.54 28.98 1214.98 28.98C1214.42 28.98 1213.92 29.11 1213.48 29.37C1213.04 29.62 1212.69 29.975 1212.43 30.435C1212.17 30.895 1212.04 31.435 1212.04 32.055C1212.04 32.665 1212.17 33.205 1212.43 33.675C1212.69 34.135 1213.04 34.495 1213.48 34.755C1213.92 35.005 1214.42 35.13 1214.97 35.13ZM1222.32 36L1219.35 28.125H1220.37L1223.07 35.43H1222.61L1225.38 28.125H1226.3L1229.04 35.43H1228.58L1231.32 28.125H1232.3L1229.31 36H1228.31L1225.67 29.13H1225.98L1223.33 36H1222.32ZM1233.68 36V24.87H1234.74V36H1233.68ZM1240.83 36.075C1240.01 36.075 1239.29 35.905 1238.67 35.565C1238.05 35.215 1237.56 34.74 1237.21 34.14C1236.86 33.53 1236.69 32.835 1236.69 32.055C1236.69 31.275 1236.85 30.585 1237.18 29.985C1237.52 29.385 1237.98 28.915 1238.56 28.575C1239.15 28.225 1239.81 28.05 1240.54 28.05C1241.28 28.05 1241.94 28.22 1242.51 28.56C1243.09 28.89 1243.54 29.36 1243.87 29.97C1244.2 30.57 1244.37 31.265 1244.37 32.055C1244.37 32.105 1244.36 32.16 1244.35 32.22C1244.35 32.27 1244.35 32.325 1244.35 32.385H1237.5V31.59H1243.78L1243.36 31.905C1243.36 31.335 1243.24 30.83 1242.99 30.39C1242.75 29.94 1242.42 29.59 1242 29.34C1241.58 29.09 1241.09 28.965 1240.54 28.965C1240 28.965 1239.52 29.09 1239.09 29.34C1238.66 29.59 1238.32 29.94 1238.08 30.39C1237.84 30.84 1237.72 31.355 1237.72 31.935V32.1C1237.72 32.7 1237.85 33.23 1238.11 33.69C1238.38 34.14 1238.75 34.495 1239.22 34.755C1239.7 35.005 1240.25 35.13 1240.86 35.13C1241.34 35.13 1241.78 35.045 1242.19 34.875C1242.61 34.705 1242.97 34.445 1243.27 34.095L1243.87 34.785C1243.52 35.205 1243.08 35.525 1242.55 35.745C1242.03 35.965 1241.46 36.075 1240.83 36.075ZM1249.44 36.075C1248.69 36.075 1248.02 35.905 1247.42 35.565C1246.83 35.225 1246.36 34.755 1246.02 34.155C1245.68 33.545 1245.51 32.845 1245.51 32.055C1245.51 31.255 1245.68 30.555 1246.02 29.955C1246.36 29.355 1246.83 28.89 1247.42 28.56C1248.02 28.22 1248.69 28.05 1249.44 28.05C1250.13 28.05 1250.75 28.205 1251.29 28.515C1251.84 28.825 1252.27 29.28 1252.59 29.88C1252.92 30.47 1253.09 31.195 1253.09 32.055C1253.09 32.905 1252.93 33.63 1252.61 34.23C1252.29 34.83 1251.85 35.29 1251.3 35.61C1250.76 35.92 1250.14 36.075 1249.44 36.075ZM1249.52 35.13C1250.08 35.13 1250.58 35.005 1251.02 34.755C1251.47 34.495 1251.82 34.135 1252.07 33.675C1252.33 33.205 1252.46 32.665 1252.46 32.055C1252.46 31.435 1252.33 30.895 1252.07 30.435C1251.82 29.975 1251.47 29.62 1251.02 29.37C1250.58 29.11 1250.08 28.98 1249.52 28.98C1248.97 28.98 1248.47 29.11 1248.03 29.37C1247.59 29.62 1247.24 29.975 1246.98 30.435C1246.72 30.895 1246.59 31.435 1246.59 32.055C1246.59 32.665 1246.72 33.205 1246.98 33.675C1247.24 34.135 1247.59 34.495 1248.03 34.755C1248.47 35.005 1248.97 35.13 1249.52 35.13ZM1252.49 36V33.63L1252.59 32.04L1252.44 30.45V24.87H1253.51V36H1252.49ZM1259.61 38.985C1258.89 38.985 1258.2 38.88 1257.54 38.67C1256.88 38.46 1256.34 38.16 1255.93 37.77L1256.47 36.96C1256.84 37.29 1257.3 37.55 1257.84 37.74C1258.39 37.94 1258.97 38.04 1259.58 38.04C1260.58 38.04 1261.31 37.805 1261.78 37.335C1262.25 36.875 1262.49 36.155 1262.49 35.175V33.21L1262.64 31.86L1262.53 30.51V28.125H1263.55V35.04C1263.55 36.4 1263.22 37.395 1262.55 38.025C1261.89 38.665 1260.91 38.985 1259.61 38.985ZM1259.41 35.7C1258.66 35.7 1257.99 35.54 1257.39 35.22C1256.79 34.89 1256.31 34.435 1255.96 33.855C1255.62 33.275 1255.45 32.61 1255.45 31.86C1255.45 31.11 1255.62 30.45 1255.96 29.88C1256.31 29.3 1256.79 28.85 1257.39 28.53C1257.99 28.21 1258.66 28.05 1259.41 28.05C1260.11 28.05 1260.74 28.195 1261.3 28.485C1261.86 28.775 1262.31 29.205 1262.64 29.775C1262.97 30.345 1263.13 31.04 1263.13 31.86C1263.13 32.68 1262.97 33.375 1262.64 33.945C1262.31 34.515 1261.86 34.95 1261.3 35.25C1260.74 35.55 1260.11 35.7 1259.41 35.7ZM1259.52 34.755C1260.1 34.755 1260.61 34.635 1261.06 34.395C1261.51 34.145 1261.87 33.805 1262.13 33.375C1262.39 32.935 1262.52 32.43 1262.52 31.86C1262.52 31.29 1262.39 30.79 1262.13 30.36C1261.87 29.93 1261.51 29.595 1261.06 29.355C1260.61 29.105 1260.1 28.98 1259.52 28.98C1258.95 28.98 1258.43 29.105 1257.97 29.355C1257.52 29.595 1257.17 29.93 1256.91 30.36C1256.66 30.79 1256.53 31.29 1256.53 31.86C1256.53 32.43 1256.66 32.935 1256.91 33.375C1257.17 33.805 1257.52 34.145 1257.97 34.395C1258.43 34.635 1258.95 34.755 1259.52 34.755ZM1269.64 36.075C1268.82 36.075 1268.1 35.905 1267.48 35.565C1266.86 35.215 1266.37 34.74 1266.02 34.14C1265.67 33.53 1265.5 32.835 1265.5 32.055C1265.5 31.275 1265.66 30.585 1265.99 29.985C1266.33 29.385 1266.79 28.915 1267.37 28.575C1267.96 28.225 1268.62 28.05 1269.35 28.05C1270.09 28.05 1270.75 28.22 1271.32 28.56C1271.9 28.89 1272.35 29.36 1272.68 29.97C1273.01 30.57 1273.18 31.265 1273.18 32.055C1273.18 32.105 1273.17 32.16 1273.16 32.22C1273.16 32.27 1273.16 32.325 1273.16 32.385H1266.31V31.59H1272.59L1272.17 31.905C1272.17 31.335 1272.05 30.83 1271.8 30.39C1271.56 29.94 1271.23 29.59 1270.81 29.34C1270.39 29.09 1269.9 28.965 1269.35 28.965C1268.81 28.965 1268.33 29.09 1267.9 29.34C1267.47 29.59 1267.13 29.94 1266.89 30.39C1266.65 30.84 1266.53 31.355 1266.53 31.935V32.1C1266.53 32.7 1266.66 33.23 1266.92 33.69C1267.19 34.14 1267.56 34.495 1268.03 34.755C1268.51 35.005 1269.06 35.13 1269.67 35.13C1270.15 35.13 1270.59 35.045 1271 34.875C1271.42 34.705 1271.78 34.445 1272.08 34.095L1272.68 34.785C1272.33 35.205 1271.89 35.525 1271.36 35.745C1270.84 35.965 1270.27 36.075 1269.64 36.075ZM1279.05 36V25.5H1279.96L1284.76 33.69H1284.28L1289.04 25.5H1289.95V36H1288.89V27.165H1289.14L1284.76 34.665H1284.24L1279.83 27.165H1280.11V36H1279.05ZM1297.86 36V34.26L1297.81 33.975V31.065C1297.81 30.395 1297.62 29.88 1297.24 29.52C1296.87 29.16 1296.32 28.98 1295.58 28.98C1295.07 28.98 1294.58 29.065 1294.12 29.235C1293.66 29.405 1293.27 29.63 1292.95 29.91L1292.47 29.115C1292.87 28.775 1293.35 28.515 1293.91 28.335C1294.47 28.145 1295.06 28.05 1295.68 28.05C1296.7 28.05 1297.49 28.305 1298.04 28.815C1298.6 29.315 1298.88 30.08 1298.88 31.11V36H1297.86ZM1295.14 36.075C1294.55 36.075 1294.04 35.98 1293.6 35.79C1293.17 35.59 1292.84 35.32 1292.61 34.98C1292.38 34.63 1292.26 34.23 1292.26 33.78C1292.26 33.37 1292.36 33 1292.55 32.67C1292.75 32.33 1293.07 32.06 1293.51 31.86C1293.96 31.65 1294.56 31.545 1295.31 31.545H1298.02V32.34H1295.34C1294.58 32.34 1294.05 32.475 1293.75 32.745C1293.46 33.015 1293.31 33.35 1293.31 33.75C1293.31 34.2 1293.49 34.56 1293.84 34.83C1294.19 35.1 1294.68 35.235 1295.31 35.235C1295.91 35.235 1296.42 35.1 1296.85 34.83C1297.29 34.55 1297.61 34.15 1297.81 33.63L1298.05 34.365C1297.85 34.885 1297.5 35.3 1297 35.61C1296.51 35.92 1295.89 36.075 1295.14 36.075ZM1305.57 28.05C1306.21 28.05 1306.77 28.175 1307.25 28.425C1307.74 28.665 1308.12 29.035 1308.39 29.535C1308.67 30.035 1308.81 30.665 1308.81 31.425V36H1307.74V31.53C1307.74 30.7 1307.53 30.075 1307.11 29.655C1306.7 29.225 1306.12 29.01 1305.37 29.01C1304.81 29.01 1304.32 29.125 1303.9 29.355C1303.49 29.575 1303.17 29.9 1302.94 30.33C1302.72 30.75 1302.61 31.26 1302.61 31.86V36H1301.55V28.125H1302.57V30.285L1302.4 29.88C1302.65 29.31 1303.05 28.865 1303.6 28.545C1304.15 28.215 1304.81 28.05 1305.57 28.05ZM1316.39 36V34.26L1316.35 33.975V31.065C1316.35 30.395 1316.16 29.88 1315.78 29.52C1315.41 29.16 1314.85 28.98 1314.11 28.98C1313.6 28.98 1313.12 29.065 1312.66 29.235C1312.2 29.405 1311.81 29.63 1311.49 29.91L1311.01 29.115C1311.41 28.775 1311.89 28.515 1312.45 28.335C1313.01 28.145 1313.6 28.05 1314.22 28.05C1315.24 28.05 1316.02 28.305 1316.57 28.815C1317.13 29.315 1317.41 30.08 1317.41 31.11V36H1316.39ZM1313.68 36.075C1313.09 36.075 1312.57 35.98 1312.13 35.79C1311.7 35.59 1311.37 35.32 1311.14 34.98C1310.91 34.63 1310.8 34.23 1310.8 33.78C1310.8 33.37 1310.89 33 1311.08 32.67C1311.28 32.33 1311.6 32.06 1312.04 31.86C1312.49 31.65 1313.09 31.545 1313.84 31.545H1316.56V32.34H1313.87C1313.11 32.34 1312.58 32.475 1312.28 32.745C1311.99 33.015 1311.85 33.35 1311.85 33.75C1311.85 34.2 1312.02 34.56 1312.37 34.83C1312.72 35.1 1313.21 35.235 1313.84 35.235C1314.44 35.235 1314.96 35.1 1315.39 34.83C1315.83 34.55 1316.15 34.15 1316.35 33.63L1316.59 34.365C1316.39 34.885 1316.04 35.3 1315.54 35.61C1315.05 35.92 1314.43 36.075 1313.68 36.075ZM1323.44 38.985C1322.72 38.985 1322.03 38.88 1321.37 38.67C1320.71 38.46 1320.17 38.16 1319.76 37.77L1320.3 36.96C1320.67 37.29 1321.13 37.55 1321.67 37.74C1322.22 37.94 1322.8 38.04 1323.41 38.04C1324.41 38.04 1325.14 37.805 1325.61 37.335C1326.08 36.875 1326.32 36.155 1326.32 35.175V33.21L1326.47 31.86L1326.36 30.51V28.125H1327.38V35.04C1327.38 36.4 1327.05 37.395 1326.38 38.025C1325.72 38.665 1324.74 38.985 1323.44 38.985ZM1323.24 35.7C1322.49 35.7 1321.82 35.54 1321.22 35.22C1320.62 34.89 1320.14 34.435 1319.79 33.855C1319.45 33.275 1319.28 32.61 1319.28 31.86C1319.28 31.11 1319.45 30.45 1319.79 29.88C1320.14 29.3 1320.62 28.85 1321.22 28.53C1321.82 28.21 1322.49 28.05 1323.24 28.05C1323.94 28.05 1324.57 28.195 1325.13 28.485C1325.69 28.775 1326.14 29.205 1326.47 29.775C1326.8 30.345 1326.96 31.04 1326.96 31.86C1326.96 32.68 1326.8 33.375 1326.47 33.945C1326.14 34.515 1325.69 34.95 1325.13 35.25C1324.57 35.55 1323.94 35.7 1323.24 35.7ZM1323.35 34.755C1323.93 34.755 1324.44 34.635 1324.89 34.395C1325.34 34.145 1325.7 33.805 1325.96 33.375C1326.22 32.935 1326.35 32.43 1326.35 31.86C1326.35 31.29 1326.22 30.79 1325.96 30.36C1325.7 29.93 1325.34 29.595 1324.89 29.355C1324.44 29.105 1323.93 28.98 1323.35 28.98C1322.78 28.98 1322.26 29.105 1321.8 29.355C1321.35 29.595 1321 29.93 1320.74 30.36C1320.49 30.79 1320.36 31.29 1320.36 31.86C1320.36 32.43 1320.49 32.935 1320.74 33.375C1321 33.805 1321.35 34.145 1321.8 34.395C1322.26 34.635 1322.78 34.755 1323.35 34.755ZM1333.47 36.075C1332.65 36.075 1331.93 35.905 1331.31 35.565C1330.69 35.215 1330.2 34.74 1329.85 34.14C1329.5 33.53 1329.33 32.835 1329.33 32.055C1329.33 31.275 1329.49 30.585 1329.82 29.985C1330.16 29.385 1330.62 28.915 1331.2 28.575C1331.79 28.225 1332.45 28.05 1333.18 28.05C1333.92 28.05 1334.58 28.22 1335.15 28.56C1335.73 28.89 1336.18 29.36 1336.51 29.97C1336.84 30.57 1337.01 31.265 1337.01 32.055C1337.01 32.105 1337 32.16 1336.99 32.22C1336.99 32.27 1336.99 32.325 1336.99 32.385H1330.14V31.59H1336.42L1336 31.905C1336 31.335 1335.88 30.83 1335.63 30.39C1335.39 29.94 1335.06 29.59 1334.64 29.34C1334.22 29.09 1333.73 28.965 1333.18 28.965C1332.64 28.965 1332.16 29.09 1331.73 29.34C1331.3 29.59 1330.96 29.94 1330.72 30.39C1330.48 30.84 1330.36 31.355 1330.36 31.935V32.1C1330.36 32.7 1330.49 33.23 1330.75 33.69C1331.02 34.14 1331.39 34.495 1331.86 34.755C1332.34 35.005 1332.89 35.13 1333.5 35.13C1333.98 35.13 1334.42 35.045 1334.83 34.875C1335.25 34.705 1335.61 34.445 1335.91 34.095L1336.51 34.785C1336.16 35.205 1335.72 35.525 1335.19 35.745C1334.67 35.965 1334.1 36.075 1333.47 36.075ZM1348.79 28.05C1349.43 28.05 1349.99 28.175 1350.46 28.425C1350.94 28.665 1351.31 29.035 1351.57 29.535C1351.84 30.035 1351.97 30.665 1351.97 31.425V36H1350.91V31.53C1350.91 30.7 1350.71 30.075 1350.31 29.655C1349.92 29.225 1349.36 29.01 1348.64 29.01C1348.1 29.01 1347.63 29.125 1347.23 29.355C1346.84 29.575 1346.54 29.9 1346.32 30.33C1346.11 30.75 1346 31.26 1346 31.86V36H1344.94V31.53C1344.94 30.7 1344.74 30.075 1344.34 29.655C1343.94 29.225 1343.38 29.01 1342.66 29.01C1342.13 29.01 1341.66 29.125 1341.26 29.355C1340.86 29.575 1340.55 29.9 1340.33 30.33C1340.12 30.75 1340.02 31.26 1340.02 31.86V36H1338.95V28.125H1339.97V30.255L1339.81 29.88C1340.05 29.31 1340.43 28.865 1340.96 28.545C1341.5 28.215 1342.14 28.05 1342.87 28.05C1343.64 28.05 1344.29 28.245 1344.83 28.635C1345.37 29.015 1345.72 29.59 1345.88 30.36L1345.46 30.195C1345.69 29.555 1346.1 29.04 1346.68 28.65C1347.27 28.25 1347.97 28.05 1348.79 28.05ZM1357.98 36.075C1357.16 36.075 1356.44 35.905 1355.82 35.565C1355.2 35.215 1354.71 34.74 1354.36 34.14C1354.01 33.53 1353.84 32.835 1353.84 32.055C1353.84 31.275 1354 30.585 1354.33 29.985C1354.67 29.385 1355.13 28.915 1355.71 28.575C1356.3 28.225 1356.96 28.05 1357.69 28.05C1358.43 28.05 1359.09 28.22 1359.66 28.56C1360.24 28.89 1360.69 29.36 1361.02 29.97C1361.35 30.57 1361.52 31.265 1361.52 32.055C1361.52 32.105 1361.51 32.16 1361.5 32.22C1361.5 32.27 1361.5 32.325 1361.5 32.385H1354.65V31.59H1360.93L1360.51 31.905C1360.51 31.335 1360.39 30.83 1360.14 30.39C1359.9 29.94 1359.57 29.59 1359.15 29.34C1358.73 29.09 1358.24 28.965 1357.69 28.965C1357.15 28.965 1356.67 29.09 1356.24 29.34C1355.81 29.59 1355.47 29.94 1355.23 30.39C1354.99 30.84 1354.87 31.355 1354.87 31.935V32.1C1354.87 32.7 1355 33.23 1355.26 33.69C1355.53 34.14 1355.9 34.495 1356.37 34.755C1356.85 35.005 1357.4 35.13 1358.01 35.13C1358.49 35.13 1358.93 35.045 1359.34 34.875C1359.76 34.705 1360.12 34.445 1360.42 34.095L1361.02 34.785C1360.67 35.205 1360.23 35.525 1359.7 35.745C1359.18 35.965 1358.61 36.075 1357.98 36.075ZM1367.48 28.05C1368.12 28.05 1368.68 28.175 1369.16 28.425C1369.65 28.665 1370.03 29.035 1370.3 29.535C1370.58 30.035 1370.72 30.665 1370.72 31.425V36H1369.66V31.53C1369.66 30.7 1369.45 30.075 1369.03 29.655C1368.62 29.225 1368.04 29.01 1367.29 29.01C1366.73 29.01 1366.24 29.125 1365.82 29.355C1365.41 29.575 1365.09 29.9 1364.86 30.33C1364.64 30.75 1364.53 31.26 1364.53 31.86V36H1363.46V28.125H1364.48V30.285L1364.32 29.88C1364.57 29.31 1364.97 28.865 1365.52 28.545C1366.07 28.215 1366.72 28.05 1367.48 28.05ZM1375.86 36.075C1375.12 36.075 1374.55 35.875 1374.15 35.475C1373.75 35.075 1373.55 34.51 1373.55 33.78V26.385H1374.62V33.72C1374.62 34.18 1374.73 34.535 1374.96 34.785C1375.2 35.035 1375.54 35.16 1375.98 35.16C1376.45 35.16 1376.84 35.025 1377.15 34.755L1377.53 35.52C1377.32 35.71 1377.06 35.85 1376.76 35.94C1376.47 36.03 1376.17 36.075 1375.86 36.075ZM1372.14 29.01V28.125H1377.02V29.01H1372.14ZM1387.88 36V34.26L1387.83 33.975V31.065C1387.83 30.395 1387.64 29.88 1387.26 29.52C1386.89 29.16 1386.34 28.98 1385.6 28.98C1385.09 28.98 1384.6 29.065 1384.14 29.235C1383.68 29.405 1383.29 29.63 1382.97 29.91L1382.49 29.115C1382.89 28.775 1383.37 28.515 1383.93 28.335C1384.49 28.145 1385.08 28.05 1385.7 28.05C1386.72 28.05 1387.51 28.305 1388.06 28.815C1388.62 29.315 1388.9 30.08 1388.9 31.11V36H1387.88ZM1385.16 36.075C1384.57 36.075 1384.06 35.98 1383.62 35.79C1383.19 35.59 1382.86 35.32 1382.63 34.98C1382.4 34.63 1382.28 34.23 1382.28 33.78C1382.28 33.37 1382.38 33 1382.57 32.67C1382.77 32.33 1383.09 32.06 1383.53 31.86C1383.98 31.65 1384.58 31.545 1385.33 31.545H1388.04V32.34H1385.36C1384.6 32.34 1384.07 32.475 1383.77 32.745C1383.48 33.015 1383.33 33.35 1383.33 33.75C1383.33 34.2 1383.51 34.56 1383.86 34.83C1384.21 35.1 1384.7 35.235 1385.33 35.235C1385.93 35.235 1386.44 35.1 1386.87 34.83C1387.31 34.55 1387.63 34.15 1387.83 33.63L1388.07 34.365C1387.87 34.885 1387.52 35.3 1387.02 35.61C1386.53 35.92 1385.91 36.075 1385.16 36.075ZM1395.59 28.05C1396.23 28.05 1396.79 28.175 1397.27 28.425C1397.76 28.665 1398.14 29.035 1398.41 29.535C1398.69 30.035 1398.83 30.665 1398.83 31.425V36H1397.76V31.53C1397.76 30.7 1397.55 30.075 1397.13 29.655C1396.72 29.225 1396.14 29.01 1395.39 29.01C1394.83 29.01 1394.34 29.125 1393.92 29.355C1393.51 29.575 1393.19 29.9 1392.96 30.33C1392.74 30.75 1392.63 31.26 1392.63 31.86V36H1391.57V28.125H1392.59V30.285L1392.42 29.88C1392.67 29.31 1393.07 28.865 1393.62 28.545C1394.17 28.215 1394.83 28.05 1395.59 28.05ZM1404.61 36.075C1403.86 36.075 1403.19 35.905 1402.59 35.565C1402 35.225 1401.53 34.755 1401.19 34.155C1400.85 33.545 1400.68 32.845 1400.68 32.055C1400.68 31.255 1400.85 30.555 1401.19 29.955C1401.53 29.355 1402 28.89 1402.59 28.56C1403.19 28.22 1403.86 28.05 1404.61 28.05C1405.3 28.05 1405.92 28.205 1406.46 28.515C1407.01 28.825 1407.44 29.28 1407.76 29.88C1408.09 30.47 1408.26 31.195 1408.26 32.055C1408.26 32.905 1408.1 33.63 1407.78 34.23C1407.46 34.83 1407.02 35.29 1406.47 35.61C1405.93 35.92 1405.31 36.075 1404.61 36.075ZM1404.69 35.13C1405.25 35.13 1405.75 35.005 1406.19 34.755C1406.64 34.495 1406.99 34.135 1407.24 33.675C1407.5 33.205 1407.63 32.665 1407.63 32.055C1407.63 31.435 1407.5 30.895 1407.24 30.435C1406.99 29.975 1406.64 29.62 1406.19 29.37C1405.75 29.11 1405.25 28.98 1404.69 28.98C1404.14 28.98 1403.64 29.11 1403.2 29.37C1402.76 29.62 1402.41 29.975 1402.15 30.435C1401.89 30.895 1401.76 31.435 1401.76 32.055C1401.76 32.665 1401.89 33.205 1402.15 33.675C1402.41 34.135 1402.76 34.495 1403.2 34.755C1403.64 35.005 1404.14 35.13 1404.69 35.13ZM1407.66 36V33.63L1407.76 32.04L1407.61 30.45V24.87H1408.68V36H1407.66ZM1415.34 36V25.5H1416.45V36H1415.34ZM1423.44 28.05C1424.08 28.05 1424.64 28.175 1425.12 28.425C1425.61 28.665 1425.99 29.035 1426.26 29.535C1426.54 30.035 1426.68 30.665 1426.68 31.425V36H1425.62V31.53C1425.62 30.7 1425.41 30.075 1424.99 29.655C1424.58 29.225 1424 29.01 1423.25 29.01C1422.69 29.01 1422.2 29.125 1421.78 29.355C1421.37 29.575 1421.05 29.9 1420.82 30.33C1420.6 30.75 1420.49 31.26 1420.49 31.86V36H1419.42V28.125H1420.44V30.285L1420.28 29.88C1420.53 29.31 1420.93 28.865 1421.48 28.545C1422.03 28.215 1422.68 28.05 1423.44 28.05ZM1433.35 28.05C1433.99 28.05 1434.55 28.175 1435.03 28.425C1435.52 28.665 1435.9 29.035 1436.17 29.535C1436.45 30.035 1436.59 30.665 1436.59 31.425V36H1435.53V31.53C1435.53 30.7 1435.32 30.075 1434.9 29.655C1434.49 29.225 1433.91 29.01 1433.16 29.01C1432.6 29.01 1432.11 29.125 1431.69 29.355C1431.28 29.575 1430.96 29.9 1430.73 30.33C1430.51 30.75 1430.4 31.26 1430.4 31.86V36H1429.33V28.125H1430.35V30.285L1430.19 29.88C1430.44 29.31 1430.84 28.865 1431.39 28.545C1431.94 28.215 1432.59 28.05 1433.35 28.05ZM1442.45 36.075C1441.69 36.075 1441.01 35.905 1440.4 35.565C1439.8 35.215 1439.32 34.74 1438.97 34.14C1438.62 33.53 1438.45 32.835 1438.45 32.055C1438.45 31.265 1438.62 30.57 1438.97 29.97C1439.32 29.37 1439.8 28.9 1440.4 28.56C1441 28.22 1441.68 28.05 1442.45 28.05C1443.23 28.05 1443.92 28.22 1444.52 28.56C1445.13 28.9 1445.61 29.37 1445.95 29.97C1446.3 30.57 1446.47 31.265 1446.47 32.055C1446.47 32.835 1446.3 33.53 1445.95 34.14C1445.61 34.74 1445.13 35.215 1444.52 35.565C1443.91 35.905 1443.22 36.075 1442.45 36.075ZM1442.45 35.13C1443.02 35.13 1443.53 35.005 1443.97 34.755C1444.41 34.495 1444.75 34.135 1445 33.675C1445.26 33.205 1445.39 32.665 1445.39 32.055C1445.39 31.435 1445.26 30.895 1445 30.435C1444.75 29.975 1444.41 29.62 1443.97 29.37C1443.53 29.11 1443.03 28.98 1442.47 28.98C1441.91 28.98 1441.41 29.11 1440.97 29.37C1440.53 29.62 1440.18 29.975 1439.92 30.435C1439.66 30.895 1439.53 31.435 1439.53 32.055C1439.53 32.665 1439.66 33.205 1439.92 33.675C1440.18 34.135 1440.53 34.495 1440.97 34.755C1441.41 35.005 1441.9 35.13 1442.45 35.13ZM1450.23 36L1446.73 28.125H1447.84L1451.05 35.43H1450.53L1453.78 28.125H1454.83L1451.32 36H1450.23ZM1460.81 36V34.26L1460.76 33.975V31.065C1460.76 30.395 1460.57 29.88 1460.19 29.52C1459.82 29.16 1459.27 28.98 1458.53 28.98C1458.02 28.98 1457.53 29.065 1457.07 29.235C1456.61 29.405 1456.22 29.63 1455.9 29.91L1455.42 29.115C1455.82 28.775 1456.3 28.515 1456.86 28.335C1457.42 28.145 1458.01 28.05 1458.63 28.05C1459.65 28.05 1460.44 28.305 1460.99 28.815C1461.55 29.315 1461.83 30.08 1461.83 31.11V36H1460.81ZM1458.09 36.075C1457.5 36.075 1456.99 35.98 1456.55 35.79C1456.12 35.59 1455.79 35.32 1455.56 34.98C1455.33 34.63 1455.21 34.23 1455.21 33.78C1455.21 33.37 1455.31 33 1455.5 32.67C1455.7 32.33 1456.02 32.06 1456.46 31.86C1456.91 31.65 1457.51 31.545 1458.26 31.545H1460.97V32.34H1458.29C1457.53 32.34 1457 32.475 1456.7 32.745C1456.41 33.015 1456.26 33.35 1456.26 33.75C1456.26 34.2 1456.44 34.56 1456.79 34.83C1457.14 35.1 1457.63 35.235 1458.26 35.235C1458.86 35.235 1459.37 35.1 1459.8 34.83C1460.24 34.55 1460.56 34.15 1460.76 33.63L1461 34.365C1460.8 34.885 1460.45 35.3 1459.95 35.61C1459.46 35.92 1458.84 36.075 1458.09 36.075ZM1466.99 36.075C1466.25 36.075 1465.68 35.875 1465.28 35.475C1464.88 35.075 1464.68 34.51 1464.68 33.78V26.385H1465.74V33.72C1465.74 34.18 1465.86 34.535 1466.09 34.785C1466.33 35.035 1466.67 35.16 1467.11 35.16C1467.58 35.16 1467.97 35.025 1468.28 34.755L1468.65 35.52C1468.44 35.71 1468.19 35.85 1467.89 35.94C1467.6 36.03 1467.3 36.075 1466.99 36.075ZM1463.27 29.01V28.125H1468.14V29.01H1463.27ZM1470.37 36V28.125H1471.43V36H1470.37ZM1470.91 26.385C1470.69 26.385 1470.5 26.31 1470.35 26.16C1470.2 26.01 1470.13 25.83 1470.13 25.62C1470.13 25.41 1470.2 25.235 1470.35 25.095C1470.5 24.945 1470.69 24.87 1470.91 24.87C1471.13 24.87 1471.31 24.94 1471.46 25.08C1471.61 25.22 1471.69 25.395 1471.69 25.605C1471.69 25.825 1471.61 26.01 1471.46 26.16C1471.32 26.31 1471.14 26.385 1470.91 26.385ZM1477.38 36.075C1476.62 36.075 1475.93 35.905 1475.32 35.565C1474.72 35.215 1474.25 34.74 1473.9 34.14C1473.55 33.53 1473.37 32.835 1473.37 32.055C1473.37 31.265 1473.55 30.57 1473.9 29.97C1474.25 29.37 1474.72 28.9 1475.32 28.56C1475.92 28.22 1476.61 28.05 1477.38 28.05C1478.16 28.05 1478.85 28.22 1479.45 28.56C1480.06 28.9 1480.53 29.37 1480.87 29.97C1481.22 30.57 1481.4 31.265 1481.4 32.055C1481.4 32.835 1481.22 33.53 1480.87 34.14C1480.53 34.74 1480.06 35.215 1479.45 35.565C1478.84 35.905 1478.15 36.075 1477.38 36.075ZM1477.38 35.13C1477.95 35.13 1478.45 35.005 1478.89 34.755C1479.33 34.495 1479.68 34.135 1479.93 33.675C1480.19 33.205 1480.32 32.665 1480.32 32.055C1480.32 31.435 1480.19 30.895 1479.93 30.435C1479.68 29.975 1479.33 29.62 1478.89 29.37C1478.45 29.11 1477.95 28.98 1477.39 28.98C1476.83 28.98 1476.33 29.11 1475.89 29.37C1475.45 29.62 1475.1 29.975 1474.84 30.435C1474.58 30.895 1474.45 31.435 1474.45 32.055C1474.45 32.665 1474.58 33.205 1474.84 33.675C1475.1 34.135 1475.45 34.495 1475.89 34.755C1476.33 35.005 1476.83 35.13 1477.38 35.13ZM1487.37 28.05C1488.01 28.05 1488.57 28.175 1489.05 28.425C1489.54 28.665 1489.92 29.035 1490.19 29.535C1490.47 30.035 1490.61 30.665 1490.61 31.425V36H1489.54V31.53C1489.54 30.7 1489.33 30.075 1488.91 29.655C1488.5 29.225 1487.92 29.01 1487.17 29.01C1486.61 29.01 1486.12 29.125 1485.7 29.355C1485.29 29.575 1484.97 29.9 1484.74 30.33C1484.52 30.75 1484.41 31.26 1484.41 31.86V36H1483.35V28.125H1484.37V30.285L1484.2 29.88C1484.45 29.31 1484.85 28.865 1485.4 28.545C1485.95 28.215 1486.61 28.05 1487.37 28.05Z" fill="#AA1F33"/>
</g>
<defs>
<filter id="filter0_b_460_8201" x="-5" y="-4" width="1545" height="68" filterUnits="userSpaceOnUse" color-interpolation-filters="sRGB">
<feFlood flood-opacity="0" result="BackgroundImageFix"/>
<feGaussianBlur in="BackgroundImageFix" stdDeviation="2"/>
<feComposite in2="SourceAlpha" operator="in" result="effect1_backgroundBlur_460_8201"/>
<feBlend mode="normal" in="SourceGraphic" in2="effect1_backgroundBlur_460_8201" result="shape"/>
</filter>
</defs>
</svg>
